<?xml version="1.0" encoding="utf-8"?>
<svg xmlns="http://www.w3.org/2000/svg" viewBox="0 0 512 512" width="512" height="512" preserveAspectRatio="none"><g id="Ebene_1" transform="matrix(0.924962043762207, 0, 0, 0.924962043762207, 9.793144226074219, 111.19718170166016)" style=""><g><path class="st0" d="M327.6,170l-60.5-98.2c-2.3-3.7-5.1-6-9.4-6s-7.1,2.4-9.4,6l-50.4,81.9-50.5-81.9c-2.3-3.7-5.1-6-9.4-6s-7.1,2.4-9.4,6l-60.5,98.2c-1.2,1.9.2,4.3,2.5,4.3h15.7c1,0,2-.5,2.5-1.4l49.1-79.8,22.7,36.9h-28.9c-2,0-3.7,1.6-3.7,3.6v9.9c0,2,1.7,3.6,3.7,3.6h39.5l15.9,25.8c.5.9,1.5,1.4,2.5,1.4h16.3c1,0,2-.5,2.5-1.4l49.1-79.8,22.7,36.9h-28.9c-2,0-3.7,1.6-3.7,3.6v9.9c0,2,1.7,3.6,3.7,3.6h39.5l15.9,25.8c.5.9,1.5,1.4,2.5,1.4h15.7c2.3,0,3.7-2.4,2.5-4.3ZM464.7,76.6c0,1.5-.4,2.9-1.1,4.2-.7,1.2-1.7,2.2-3,3-1.3.7-2.8,1.1-4.4,1.1s-3.2-.4-4.4-1.1c-1.3-.7-2.3-1.7-3-3-.7-1.2-1.1-2.6-1.1-4.2s.4-3,1.1-4.2c.7-1.2,1.7-2.2,3-2.9,1.3-.7,2.8-1.1,4.4-1.1s3.2.4,4.4,1.1c1.3.7,2.3,1.7,3,2.9.7,1.2,1.1,2.6,1.1,4.2ZM462.9,76.6c0-1.2-.3-2.4-.8-3.4-.6-1-1.3-1.8-2.4-2.4-1-.6-2.2-.9-3.5-.9s-2.5.3-3.5.9c-1,.6-1.8,1.4-2.4,2.4s-.8,2.1-.8,3.4.3,2.4.8,3.4,1.4,1.8,2.4,2.4c1,.6,2.2.9,3.5.9s2.5-.3,3.5-.9c1-.6,1.8-1.4,2.4-2.4s.8-2.1.8-3.4ZM460.2,81.1h-1.9l-2.2-3.2h-1.7v3.2h-1.7v-8.9h3.8c.7,0,1.3.1,1.8.4.5.2.9.6,1.2,1,.3.4.4.9.4,1.5,0,.9-.3,1.6-1,2.1-.4.3-.8.5-1.3.6l2.4,3.4ZM454.4,76.7h2.1c.6,0,1-.1,1.4-.4.3-.3.5-.7.5-1.2s-.2-1-.5-1.2c-.3-.3-.8-.4-1.4-.4h-2.1v3.2ZM447.6,116.3v54.4c0,2-1.6,3.6-3.6,3.6h-67.8c-30.3,0-54.9-24-54.9-53.6s24.6-53.6,54.9-53.6h57.7c2.1,0,3.8,1.8,3.8,3.8v11.2c0,2.1-1.7,3.7-3.8,3.7h-57.7c-19.7,0-35.7,15.6-35.7,34.8s16,34.8,35.7,34.8h51.6c0,0,0-25.7,0-25.7h-33.9c-2,0-3.7-1.6-3.7-3.6v-9.9c0-2,1.7-3.6,3.7-3.6h50.1c2,0,3.7,1.6,3.7,3.6Z" style="fill: rgb(0, 36, 78);"/><g><path class="st0" d="M82.9,224.6v2.5h-15v-2.5h15ZM76.8,224.6v22.6h-2.9v-22.6h2.9Z" style="fill: rgb(0, 36, 78);"/><path class="st0" d="M88.8,224.6v22.6h-2.9v-22.6h2.9ZM98.4,234.3v2.4h-10v-2.4h10ZM101,224.6v22.6h-2.9v-22.6h2.9Z" style="fill: rgb(0, 36, 78);"/><path class="st0" d="M109.1,224.6v22.6h-2.9v-22.6h2.9ZM118.5,224.6v2.5h-9.9v-2.5h9.9ZM117.3,234.3v2.4h-8.7v-2.4h8.7ZM118.6,244.7v2.4h-10v-2.4h10Z" style="fill: rgb(0, 36, 78);"/><path class="st0" d="M134.3,224.6l2.9,15.5.9,7.1h-2l-4.6-22.6h2.9ZM137.9,240.3l3.7-15.8h2.1l-1.1,6.1-4,16.5h-2.1l1.4-6.8ZM144,224.6l3.6,15.8,1.4,6.8h-2.1l-3.8-16.5-1.1-6.1h2ZM148.4,240l2.8-15.4h2.9l-4.6,22.6h-2l.9-7.2Z" style="fill: rgb(0, 36, 78);"/><path class="st0" d="M172.5,233.6v3.9c0,1.6-.2,3-.5,4.2-.4,1.2-.9,2.2-1.5,3-.7.8-1.5,1.4-2.4,1.8s-2,.6-3.2.6-2.2-.2-3.2-.6-1.8-1-2.5-1.8-1.2-1.8-1.6-3c-.4-1.2-.6-2.6-.6-4.2v-3.9c0-1.6.2-3,.6-4.2s.9-2.2,1.6-3c.7-.8,1.5-1.4,2.5-1.8,1-.4,2-.6,3.2-.6s2.3.2,3.2.6c1,.4,1.8,1,2.4,1.8s1.2,1.8,1.5,3,.5,2.6.5,4.2ZM169.6,237.5v-4c0-1.2-.1-2.3-.3-3.2-.2-.9-.5-1.6-.9-2.2s-.9-1-1.5-1.3c-.6-.3-1.3-.4-2.1-.4s-1.4.1-2,.4c-.6.3-1.1.7-1.5,1.3-.4.6-.7,1.3-1,2.2-.2.9-.3,2-.3,3.2v4c0,1.3.1,2.3.3,3.2.2.9.6,1.6,1,2.2.4.6.9,1,1.5,1.3.6.3,1.3.4,2,.4s1.5-.1,2.1-.4c.6-.3,1.1-.7,1.5-1.3.4-.6.7-1.3.9-2.2.2-.9.3-2,.3-3.2Z" style="fill: rgb(0, 36, 78);"/><path class="st0" d="M176.5,224.6h6.5c1.5,0,2.8.3,3.8.8,1,.5,1.8,1.3,2.3,2.3.5,1,.8,2.2.8,3.7s-.2,2-.5,2.8c-.3.9-.9,1.6-1.5,2.2-.7.6-1.5,1-2.4,1.3l-.8.3h-5.8v-2.4s4.1,0,4.1,0c.9,0,1.6-.2,2.2-.6.6-.4,1-.9,1.3-1.5.3-.6.4-1.3.4-2.1s-.1-1.6-.4-2.3-.7-1.2-1.3-1.5c-.6-.4-1.3-.5-2.3-.5h-3.5v20.1h-2.9v-22.6ZM187.6,247.2l-4.6-10.2h3s4.7,10.1,4.7,10.1v.2h-3.1Z" style="fill: rgb(0, 36, 78);"/><path class="st0" d="M197.6,224.6v22.6h-2.9v-22.6h2.9ZM206.7,244.7v2.4h-9.6v-2.4h9.6Z" style="fill: rgb(0, 36, 78);"/><path class="st0" d="M213.6,224.6v22.6h-2.9v-22.6h2.9ZM215.9,247.2h-3.9v-2.4h3.9c1.4,0,2.5-.3,3.4-.8.9-.5,1.5-1.3,1.9-2.3.4-1,.6-2.3.6-3.8v-3.9c0-1.2-.1-2.2-.3-3.1s-.6-1.6-1-2.1-1.1-1-1.8-1.2c-.7-.3-1.5-.4-2.5-.4h-4.3v-2.5h4.3c1.3,0,2.5.2,3.5.6,1,.4,1.9,1,2.7,1.8.8.8,1.3,1.8,1.7,2.9.4,1.2.6,2.5.6,4.1v3.8c0,1.5-.2,2.9-.6,4.1-.4,1.2-1,2.1-1.7,2.9s-1.7,1.4-2.8,1.8c-1.1.4-2.3.6-3.7.6Z" style="fill: rgb(0, 36, 78);"/><path class="st0" d="M251.8,233.6v3.9c0,1.6-.2,3-.5,4.2-.4,1.2-.9,2.2-1.5,3s-1.5,1.4-2.4,1.8-2,.6-3.2.6-2.2-.2-3.2-.6-1.8-1-2.5-1.8-1.2-1.8-1.6-3c-.4-1.2-.6-2.6-.6-4.2v-3.9c0-1.6.2-3,.6-4.2s.9-2.2,1.6-3,1.5-1.4,2.5-1.8c1-.4,2-.6,3.2-.6s2.3.2,3.2.6c1,.4,1.8,1,2.4,1.8.7.8,1.2,1.8,1.5,3,.4,1.2.5,2.6.5,4.2ZM248.9,237.5v-4c0-1.2-.1-2.3-.3-3.2s-.5-1.6-.9-2.2-.9-1-1.5-1.3c-.6-.3-1.3-.4-2.1-.4s-1.4.1-2,.4c-.6.3-1.1.7-1.5,1.3s-.7,1.3-1,2.2c-.2.9-.3,2-.3,3.2v4c0,1.3.1,2.3.3,3.2.2.9.6,1.6,1,2.2.4.6.9,1,1.5,1.3.6.3,1.3.4,2,.4s1.5-.1,2.1-.4c.6-.3,1.1-.7,1.5-1.3.4-.6.7-1.3.9-2.2.2-.9.3-2,.3-3.2Z" style="fill: rgb(0, 36, 78);"/><path class="st0" d="M258.5,224.6v22.6h-2.9v-22.6h2.9ZM267.7,224.6v2.5h-9.7v-2.5h9.7ZM266.3,234.7v2.5h-8.4v-2.5h8.4Z" style="fill: rgb(0, 36, 78);"/><path class="st0" d="M286.5,226.6l-6.3,20.6h-3l7.5-22.6h1.9v2ZM291.6,238.8v2.5h-11.2v-2.5h11.2ZM291.6,247.2l-6.3-20.6v-2s1.9,0,1.9,0l7.5,22.6h-3Z" style="fill: rgb(0, 36, 78);"/><path class="st0" d="M308.7,224.3h2.9v15.9c0,1.7-.3,3.1-1,4.1s-1.5,1.8-2.6,2.2c-1.1.5-2.3.7-3.5.7s-2.5-.2-3.6-.7-1.9-1.2-2.6-2.2c-.6-1-.9-2.4-.9-4.1v-15.9h2.9v15.9c0,1.2.2,2.1.5,2.8.3.7.8,1.1,1.5,1.4.6.3,1.4.4,2.2.4s1.6-.1,2.2-.4c.6-.3,1.1-.7,1.5-1.4.3-.7.5-1.6.5-2.8v-15.9Z" style="fill: rgb(0, 36, 78);"/><path class="st0" d="M330.4,224.6v2.5h-15v-2.5h15ZM324.4,224.6v22.6h-2.9v-22.6h2.9Z" style="fill: rgb(0, 36, 78);"/><path class="st0" d="M348.8,233.6v3.9c0,1.6-.2,3-.5,4.2-.4,1.2-.9,2.2-1.5,3-.7.8-1.5,1.4-2.4,1.8s-2,.6-3.2.6-2.2-.2-3.2-.6-1.8-1-2.5-1.8-1.2-1.8-1.6-3c-.4-1.2-.6-2.6-.6-4.2v-3.9c0-1.6.2-3,.6-4.2.4-1.2.9-2.2,1.6-3s1.5-1.4,2.5-1.8c1-.4,2-.6,3.2-.6s2.3.2,3.2.6c1,.4,1.8,1,2.4,1.8.7.8,1.2,1.8,1.5,3s.5,2.6.5,4.2ZM345.9,237.5v-4c0-1.2-.1-2.3-.3-3.2s-.5-1.6-.9-2.2c-.4-.6-.9-1-1.5-1.3-.6-.3-1.3-.4-2.1-.4s-1.4.1-2,.4c-.6.3-1.1.7-1.5,1.3-.4.6-.8,1.3-1,2.2-.2.9-.3,2-.3,3.2v4c0,1.3.1,2.3.3,3.2.2.9.6,1.6,1,2.2.4.6.9,1,1.5,1.3.6.3,1.3.4,2,.4s1.5-.1,2.1-.4c.6-.3,1.1-.7,1.5-1.3.4-.6.7-1.3.9-2.2.2-.9.3-2,.3-3.2Z" style="fill: rgb(0, 36, 78);"/><path class="st0" d="M369.4,238.3h-5.1v-2.4h5.1c1,0,1.7-.2,2.3-.6.6-.4,1-.9,1.3-1.6.3-.7.4-1.4.4-2.3s-.1-1.5-.4-2.2c-.3-.7-.7-1.2-1.3-1.7-.6-.4-1.4-.6-2.3-.6h-4.4v20.1h-2.9v-22.6h7.4c1.5,0,2.8.3,3.8.9,1,.6,1.8,1.4,2.3,2.4.5,1,.8,2.2.8,3.6s-.3,2.7-.8,3.7c-.5,1-1.3,1.8-2.3,2.3-1,.5-2.3.8-3.8.8Z" style="fill: rgb(0, 36, 78);"/><path class="st0" d="M387.7,226.6l-6.3,20.6h-3l7.5-22.6h1.9v2ZM392.9,238.8v2.5h-11.2v-2.5h11.2ZM392.9,247.2l-6.3-20.6v-2s1.9,0,1.9,0l7.5,22.6h-3Z" style="fill: rgb(0, 36, 78);"/><path class="st0" d="M399.6,224.6h6.5c1.5,0,2.8.3,3.8.8,1,.5,1.8,1.3,2.3,2.3.5,1,.8,2.2.8,3.7s-.2,2-.5,2.8c-.3.9-.9,1.6-1.5,2.2-.7.6-1.5,1-2.4,1.3l-.8.3h-5.8v-2.4s4.1,0,4.1,0c.9,0,1.6-.2,2.2-.6.6-.4,1-.9,1.3-1.5.3-.6.4-1.3.4-2.1s-.1-1.6-.4-2.3-.7-1.2-1.3-1.5c-.6-.4-1.3-.5-2.3-.5h-3.5v20.1h-2.9v-22.6ZM410.7,247.2l-4.6-10.2h3s4.7,10.1,4.7,10.1v.2h-3.1Z" style="fill: rgb(0, 36, 78);"/><path class="st0" d="M431.7,224.6v2.5h-15v-2.5h15ZM425.6,224.6v22.6h-2.9v-22.6h2.9Z" style="fill: rgb(0, 36, 78);"/><path class="st0" d="M444.8,241.1c0-.5,0-1-.2-1.4-.1-.4-.3-.8-.7-1.1s-.8-.6-1.3-.9-1.3-.6-2.2-.9c-1-.3-1.8-.7-2.6-1.1-.8-.4-1.4-.9-2-1.4-.5-.5-1-1.1-1.3-1.8s-.4-1.5-.4-2.3.2-1.7.5-2.4c.3-.7.8-1.4,1.3-1.9.6-.6,1.3-1,2.1-1.3s1.7-.5,2.7-.5c1.5,0,2.8.3,3.8,1,1,.6,1.8,1.5,2.3,2.5.5,1,.8,2.1.8,3.3h-2.9c0-.8-.1-1.6-.4-2.3-.3-.7-.7-1.2-1.3-1.6-.6-.4-1.4-.6-2.3-.6s-1.5.2-2.1.5c-.5.3-.9.8-1.2,1.3-.3.5-.4,1.2-.4,1.9s0,.9.3,1.3c.2.4.4.7.8,1.1.4.3.8.6,1.3.9.5.3,1.2.5,1.9.8,1.1.4,2.1.8,2.9,1.2s1.5.9,2,1.5c.5.6.9,1.2,1.1,1.9.2.7.4,1.5.4,2.4s-.2,1.8-.5,2.5c-.3.7-.8,1.4-1.4,1.9-.6.5-1.3.9-2.1,1.2-.8.3-1.8.4-2.8.4s-1.8-.1-2.7-.4c-.9-.3-1.7-.7-2.4-1.3s-1.3-1.3-1.7-2.1c-.4-.9-.6-1.8-.6-3h2.9c0,.8.1,1.4.4,2,.2.6.6,1,1,1.4s.9.6,1.4.8c.5.2,1.1.3,1.7.3s1.6-.1,2.1-.4c.6-.3,1-.7,1.3-1.2.3-.5.4-1.2.4-1.9Z" style="fill: rgb(0, 36, 78);"/></g></g></g></svg>