<?xml version="1.0" encoding="utf-8"?>
<svg xmlns="http://www.w3.org/2000/svg" viewBox="0 0 512 512" xmlns:bx="https://boxy-svg.com" width="512px" height="512px">
    <defs>
        <bx:export>
            <bx:file format="svg" />
        </bx:export>
    </defs>
    <g transform="matrix(6.395176, 0, 0, 6.395176, -159.686432, 32.168831)" style="">
        <g>
            <path class="st1" d="M97.89,67.9H32.11V2.1h65.78V67.9z M33.3,66.71h63.4V3.29H33.3V66.71z" style="fill: rgb(121, 127, 131);" />
        </g>
        <path class="st1" d="M59.69,24.86c0,2.02,1.68,3.72,3.94,4.2V27.3h2.74v1.73c2.19-0.52,3.8-2.2,3.8-4.17 c0-1.97-1.61-3.65-3.8-4.17v2.55h-2.74v-2.58C61.37,21.13,59.69,22.84,59.69,24.86" style="fill: rgb(121, 127, 131);" />
        <path class="st1" d="M35.94,6.28v19.74h16.02v26.24h11.67V30.91c-3.2-0.56-5.63-3.06-5.63-6.05c0-2.99,2.43-5.49,5.63-6.06V6.28 L35.94,6.28z" style="fill: rgb(121, 127, 131);" />
        <path class="st1" d="M66.37,6.28v12.52c3.19,0.57,5.6,3.07,5.6,6.05c0,2.98-2.41,5.48-5.6,6.05v21.36l11.67,0V26.02h16.02V6.28 H66.37z" style="fill: rgb(121, 127, 131);" />
        <g>
            <path class="st1" d="M92.67,56.18c-0.75-0.83-1.78-1.25-3.09-1.25c-1.24,0-2.22,0.44-2.95,1.31c-0.69,0.82-1.04,1.87-1.04,3.15 c0,1.31,0.35,2.37,1.06,3.18c0.74,0.85,1.74,1.27,3.02,1.27c1.28,0,2.28-0.42,3.02-1.27c0.7-0.81,1.06-1.87,1.06-3.18 C93.74,58.05,93.38,56.98,92.67,56.18z M91.47,61.42c-0.41,0.61-1.02,0.92-1.82,0.92c-0.77,0-1.36-0.31-1.78-0.92 c-0.36-0.54-0.55-1.21-0.55-2.02c0-0.82,0.18-1.49,0.55-2.04c0.42-0.61,1.01-0.92,1.78-0.92c0.78,0,1.37,0.3,1.79,0.9 c0.37,0.52,0.56,1.2,0.56,2.01C92,60.2,91.83,60.89,91.47,61.42z" style="fill: rgb(121, 127, 131);" />
        </g>
        <polygon class="st1" points="75.29,55.17 77,55.17 77,58.8 80.26,55.17 82.4,55.17 79.01,58.59 82.7,63.62 80.61,63.62 &#10;&#9;&#9;&#9;&#9;77.82,59.55 77,60.36 77,63.62 75.29,63.62 &#9;&#9;&#9;" style="fill: rgb(121, 127, 131);" />
        <rect x="67.99" y="59.69" class="st1" width="3.16" height="1.61" style="fill: rgb(121, 127, 131);" />
        <polygon class="st1" points="59.89,59.31 57.28,55.17 59.35,55.17 61.06,58.26 62.74,55.17 64.64,55.17 62.02,59.3 64.64,63.62 &#10;&#9;&#9;&#9;&#9;62.56,63.62 60.86,60.53 59.16,63.62 57.28,63.62 &#9;&#9;&#9;" style="fill: rgb(121, 127, 131);" />
        <polygon class="st1" points="54.26,63.62 48.1,63.62 48.1,55.17 54.05,55.17 54.05,56.62 49.81,56.62 49.81,58.45 53.69,58.45 &#10;&#9;&#9;&#9;&#9;53.69,59.89 49.81,59.89 49.81,62.1 54.26,62.1 &#9;&#9;&#9;" style="fill: rgb(121, 127, 131);" />
        <polygon class="st1" points="40.53,63.62 40.53,56.67 38.06,56.67 38.06,55.17 44.7,55.17 44.7,56.67 42.24,56.67 42.24,63.62 &#10;&#9;&#9;&#9;&#9;&#9;&#9;&#9;" style="fill: rgb(121, 127, 131);" />
    </g>
</svg>
