<svg xmlns="http://www.w3.org/2000/svg" width="512" height="512" viewBox="0 0 512 512"><g id="deeditor_bgCarrier" stroke-width="0">
    <rect id="dee_c_e" x="-3" y="-3" width="518" height="518" rx="0" fill="#ffffff" strokewidth="0"/>
  </g>
  <clipPath id="_clip1" fill="#000000">
    <rect x="0" y="0" width="72" height="72" fill="#000000"/>
  </clipPath>
  <rect id="TEXKAT-Icon" x="294.526" y="112.421" width="72" height="72" style="fill:none;" transform="matrix(1, 0, 0, 1, 0, 7.105427357601002e-15)"/>
  <g clip-path="url(#_clip1)" transform="matrix(5.763889, 0, 0, 6.412432, 48.500055, 25.152334)" style="">
    <g id="TEXKAT-Logo">
      <path d="M72,5.452c0,-0.48 -0.191,-0.941 -0.53,-1.281c-0.34,-0.339 -0.801,-0.53 -1.281,-0.53c-6.134,0 -25.748,0 -25.748,0l-8.132,16.786l-7.923,-16.786l-26.575,0c-1,0 -1.811,0.811 -1.811,1.811l0,61.096c0,1 0.811,1.811 1.811,1.811l24.443,0l9.765,-19.053l9.711,19.053l24.459,0c0.48,0 0.941,-0.191 1.281,-0.53c0.339,-0.34 0.53,-0.801 0.53,-1.281l0,-61.096Z" style="fill:#fff;"/>
      <path d="M36.309,20.427l8.132,-16.786l25.748,0l0.022,0l0.023,0.001l0.022,0l0.023,0.001l0.022,0.002l0.022,0.001l0.023,0.002l0.022,0.002l0.022,0.002l0.022,0.003l0.022,0.003l0.022,0.003l0.022,0.003l0.022,0.004l0.022,0.004l0.022,0.004l0.022,0.005l0.021,0.004l0.022,0.005l0.021,0.006l0.022,0.005l0.021,0.006l0.021,0.006l0.022,0.006l0.021,0.007l0.021,0.007l0.021,0.007l0.021,0.007l0.02,0.008l0.021,0.007l0.021,0.009l0.02,0.008l0.02,0.008l0.021,0.009l0.02,0.009l0.02,0.01l0.02,0.009l0.02,0.01l0.019,0.01l0.02,0.01l0.019,0.011l0.02,0.011l0.019,0.011l0.019,0.011l0.019,0.011l0.019,0.012l0.018,0.012l0.019,0.012l0.018,0.013l0.018,0.012l0.018,0.013l0.018,0.013l0.018,0.014l0.018,0.013l0.017,0.014l0.018,0.014l0.017,0.014l0.017,0.015l0.017,0.015l0.016,0.015l0.017,0.015l0.016,0.015l0.017,0.016l0.016,0.015l0.015,0.016l0.016,0.017l0.015,0.016l0.015,0.017l0.015,0.016l0.015,0.017l0.015,0.017l0.014,0.017l0.014,0.018l0.014,0.017l0.013,0.018l0.014,0.018l0.013,0.018l0.013,0.018l0.012,0.018l0.013,0.018l0.012,0.019l0.012,0.018l0.012,0.019l0.011,0.019l0.011,0.019l0.011,0.019l0.011,0.02l0.011,0.019l0.01,0.02l0.01,0.02l0.01,0.019l0.009,0.02l0.01,0.02l0.009,0.02l0.009,0.021l0.008,0.02l0.008,0.02l0.009,0.021l0.007,0.021l0.008,0.02l0.007,0.021l0.007,0.021l0.007,0.021l0.007,0.021l0.006,0.022l0.006,0.021l0.006,0.021l0.005,0.022l0.006,0.021l0.005,0.022l0.004,0.021l0.005,0.022l0.004,0.022l0.004,0.022l0.004,0.022l0.003,0.022l0.003,0.022l0.003,0.022l0.003,0.022l0.002,0.022l0.002,0.022l0.002,0.023l0.002,0.022l0.001,0.022l0.001,0.023l0,0.022l0.001,0.023l0,0.022l0,61.096l0,0.022l-0.001,0.023l0,0.022l-0.001,0.023l-0.001,0.022l-0.002,0.022l-0.002,0.023l-0.002,0.022l-0.002,0.022l-0.003,0.022l-0.003,0.022l-0.003,0.022l-0.003,0.022l-0.004,0.022l-0.004,0.022l-0.004,0.022l-0.005,0.022l-0.004,0.021l-0.005,0.022l-0.006,0.021l-0.005,0.022l-0.006,0.021l-0.006,0.021l-0.006,0.022l-0.007,0.021l-0.007,0.021l-0.007,0.021l-0.007,0.021l-0.008,0.02l-0.007,0.021l-0.009,0.021l-0.008,0.02l-0.008,0.02l-0.009,0.021l-0.009,0.02l-0.01,0.02l-0.009,0.02l-0.01,0.019l-0.01,0.02l-0.01,0.02l-0.011,0.019l-0.011,0.02l-0.011,0.019l-0.011,0.019l-0.011,0.019l-0.012,0.019l-0.012,0.018l-0.012,0.019l-0.013,0.018l-0.012,0.018l-0.013,0.018l-0.013,0.018l-0.014,0.018l-0.013,0.018l-0.014,0.017l-0.014,0.018l-0.014,0.017l-0.015,0.017l-0.015,0.017l-0.015,0.016l-0.015,0.017l-0.015,0.016l-0.016,0.017l-0.015,0.016l-0.016,0.015l-0.017,0.016l-0.016,0.015l-0.017,0.015l-0.016,0.015l-0.017,0.015l-0.017,0.015l-0.017,0.014l-0.018,0.014l-0.017,0.014l-0.018,0.013l-0.018,0.014l-0.018,0.013l-0.018,0.013l-0.018,0.012l-0.018,0.013l-0.019,0.012l-0.018,0.012l-0.019,0.012l-0.019,0.011l-0.019,0.011l-0.019,0.011l-0.02,0.011l-0.019,0.011l-0.02,0.01l-0.019,0.01l-0.02,0.01l-0.02,0.009l-0.02,0.01l-0.02,0.009l-0.021,0.009l-0.02,0.008l-0.02,0.008l-0.021,0.009l-0.021,0.007l-0.02,0.008l-0.021,0.007l-0.021,0.007l-0.021,0.007l-0.021,0.007l-0.022,0.006l-0.021,0.006l-0.021,0.006l-0.022,0.005l-0.021,0.006l-0.022,0.005l-0.021,0.004l-0.022,0.005l-0.022,0.004l-0.022,0.004l-0.022,0.004l-0.022,0.003l-0.022,0.003l-0.022,0.003l-0.022,0.003l-0.022,0.002l-0.022,0.002l-0.023,0.002l-0.022,0.001l-0.022,0.002l-0.023,0.001l-0.022,0l-0.023,0.001l-0.022,0l-24.459,0l-9.711,-19.053l-9.765,19.053l-24.443,0l-0.023,0l-0.024,-0.001l-0.023,0l-0.023,-0.001l-0.023,-0.002l-0.023,-0.001l-0.023,-0.002l-0.023,-0.002l-0.023,-0.003l-0.023,-0.003l-0.022,-0.003l-0.023,-0.003l-0.022,-0.003l-0.023,-0.004l-0.022,-0.004l-0.022,-0.005l-0.022,-0.004l-0.022,-0.005l-0.022,-0.006l-0.022,-0.005l-0.021,-0.006l-0.022,-0.006l-0.021,-0.006l-0.022,-0.006l-0.021,-0.007l-0.021,-0.007l-0.021,-0.007l-0.021,-0.008l-0.02,-0.008l-0.021,-0.008l-0.021,-0.008l-0.02,-0.008l-0.02,-0.009l-0.02,-0.009l-0.02,-0.009l-0.02,-0.01l-0.02,-0.009l-0.019,-0.01l-0.02,-0.01l-0.019,-0.011l-0.019,-0.01l-0.019,-0.011l-0.019,-0.011l-0.019,-0.011l-0.019,-0.012l-0.018,-0.011l-0.018,-0.012l-0.019,-0.012l-0.018,-0.013l-0.017,-0.012l-0.018,-0.013l-0.018,-0.013l-0.017,-0.013l-0.017,-0.013l-0.017,-0.014l-0.017,-0.014l-0.017,-0.014l-0.016,-0.014l-0.016,-0.014l-0.017,-0.015l-0.016,-0.014l-0.015,-0.015l-0.016,-0.015l-0.016,-0.015l-0.015,-0.016l-0.015,-0.016l-0.015,-0.015l-0.015,-0.016l-0.014,-0.017l-0.014,-0.016l-0.015,-0.016l-0.013,-0.017l-0.014,-0.017l-0.014,-0.017l-0.013,-0.017l-0.013,-0.017l-0.013,-0.018l-0.013,-0.018l-0.012,-0.018l-0.013,-0.017l-0.012,-0.019l-0.012,-0.018l-0.011,-0.018l-0.012,-0.019l-0.011,-0.019l-0.011,-0.019l-0.011,-0.019l-0.01,-0.019l-0.011,-0.019l-0.01,-0.02l-0.01,-0.019l-0.009,-0.02l-0.01,-0.02l-0.009,-0.02l-0.009,-0.02l-0.009,-0.02l-0.008,-0.02l-0.008,-0.021l-0.008,-0.021l-0.008,-0.02l-0.008,-0.021l-0.007,-0.021l-0.007,-0.021l-0.007,-0.022l-0.006,-0.021l-0.006,-0.021l-0.006,-0.022l-0.006,-0.021l-0.005,-0.022l-0.006,-0.022l-0.005,-0.022l-0.004,-0.022l-0.005,-0.022l-0.004,-0.022l-0.004,-0.023l-0.003,-0.022l-0.003,-0.023l-0.003,-0.022l-0.003,-0.023l-0.003,-0.023l-0.002,-0.023l-0.002,-0.023l-0.001,-0.023l-0.002,-0.023l-0.001,-0.023l0,-0.023l-0.001,-0.024l0,-0.023l0,-61.096l0,-0.023l0.001,-0.024l0,-0.023l0.001,-0.023l0.002,-0.023l0.001,-0.023l0.002,-0.023l0.002,-0.023l0.003,-0.023l0.003,-0.023l0.003,-0.022l0.003,-0.023l0.003,-0.022l0.004,-0.023l0.004,-0.022l0.005,-0.022l0.004,-0.022l0.005,-0.022l0.006,-0.022l0.005,-0.022l0.006,-0.021l0.006,-0.022l0.006,-0.021l0.006,-0.021l0.007,-0.022l0.007,-0.021l0.007,-0.021l0.008,-0.021l0.008,-0.02l0.008,-0.021l0.008,-0.021l0.008,-0.02l0.009,-0.02l0.009,-0.02l0.009,-0.02l0.01,-0.02l0.009,-0.02l0.01,-0.019l0.01,-0.02l0.011,-0.019l0.01,-0.019l0.011,-0.019l0.011,-0.019l0.011,-0.019l0.012,-0.019l0.011,-0.018l0.012,-0.018l0.012,-0.019l0.013,-0.017l0.012,-0.018l0.013,-0.018l0.013,-0.018l0.013,-0.017l0.013,-0.017l0.014,-0.017l0.014,-0.017l0.013,-0.017l0.015,-0.016l0.014,-0.016l0.014,-0.017l0.015,-0.016l0.015,-0.015l0.015,-0.016l0.015,-0.016l0.016,-0.015l0.016,-0.015l0.015,-0.015l0.016,-0.014l0.017,-0.015l0.016,-0.014l0.016,-0.014l0.017,-0.014l0.017,-0.014l0.017,-0.014l0.017,-0.013l0.017,-0.013l0.018,-0.013l0.018,-0.013l0.017,-0.012l0.018,-0.013l0.019,-0.012l0.018,-0.012l0.018,-0.011l0.019,-0.012l0.019,-0.011l0.019,-0.011l0.019,-0.011l0.019,-0.01l0.019,-0.011l0.02,-0.01l0.019,-0.01l0.02,-0.009l0.02,-0.01l0.02,-0.009l0.02,-0.009l0.02,-0.009l0.02,-0.008l0.021,-0.008l0.021,-0.008l0.02,-0.008l0.021,-0.008l0.021,-0.007l0.021,-0.007l0.021,-0.007l0.022,-0.006l0.021,-0.006l0.022,-0.006l0.021,-0.006l0.022,-0.005l0.022,-0.006l0.022,-0.005l0.022,-0.004l0.022,-0.005l0.022,-0.004l0.023,-0.004l0.022,-0.003l0.023,-0.003l0.022,-0.003l0.023,-0.003l0.023,-0.003l0.023,-0.002l0.023,-0.002l0.023,-0.001l0.023,-0.002l0.023,-0.001l0.023,0l0.024,-0.001l0.023,0l26.575,0l7.923,16.786Zm-32.289,-12.766l0,56.678l19.777,0l10.796,-21.065l2.865,0.003l10.735,21.062l19.787,0l0,-56.678l-21.019,0l-9.11,18.805l-3.145,-0.016l-8.868,-18.789l-21.818,0Z" style="fill:#c92a39;"/>
      <path d="M43.808,3.641l23.582,0l-19.466,31.989l20.752,32.729l-23.581,0l-9.09,-18.121l-9.347,18.121l-23.581,0l21.266,-32.729l-19.123,-31.989l23.582,0l7.375,15.625l7.631,-15.625Z" style="fill:#c92a39;"/>
      <path d="M36.177,19.266l7.631,-15.625l23.582,0l-19.466,31.989l20.752,32.729l-23.581,0l-9.09,-18.121l-9.347,18.121l-23.581,0l21.266,-32.729l-19.123,-31.989l23.582,0l7.375,15.625Zm-30.533,-15.385l18.905,31.626l0.031,0.083l-0.002,0.089l-0.034,0.082l-21.025,32.358l22.993,0l9.28,-17.991l0.067,-0.08l0.095,-0.045l0.266,0.127l9.023,17.989l22.997,0l-20.518,-32.36l-0.033,-0.082l-0.001,-0.089l0.031,-0.083l19.244,-31.624l-23.005,0l-7.566,15.49l-0.053,0.072l-0.076,0.047l-0.088,0.016l-0.088,-0.017l-0.075,-0.048l-0.053,-0.073l-7.309,-15.487l-23.006,0Z" style="fill:#c92a39;"/>
      <path d="M39.524,21.37l10.844,0l-8.951,14.463l9.542,14.797l-10.844,0l-4.179,-8.193l-4.299,8.193l-10.843,0l9.779,-14.797l-8.793,-14.463l10.843,0l3.391,7.064l3.51,-7.064Z" style="fill:#fff;"/>
    </g>
  </g>
</svg>