<?xml version="1.0" encoding="utf-8"?>
<svg width="512" height="512" viewBox="0 0 512 512" xmlns="http://www.w3.org/2000/svg">
  <rect class="st0" width="512" height="512" style="fill: rgb(255, 255, 255);"/>
  <g transform="matrix(1.6384000778198242, 0, 0, 1.6389250755310059, -152.93968200683594, -179.86337280273438)">
    <g transform="matrix(1, 0, 0, 1, 79.146965, 95.544685)">
      <path class="st0" d="M299.2,16.1H41.6C27.5,16.1,16,27.6,16,41.8v66h308.7v-66C324.8,27.6,313.3,16.1,299.2,16.1z" style="fill: rgb(255, 255, 255);"/>
      <path class="st1" d="M299.2,14.2H41.6c-15.1,0-27.4,12.4-27.4,27.6v259.9c0,13.8,11.9,24.9,26.7,24.9h259.1 c14.7,0,26.7-11.2,26.7-24.9V41.8C326.6,26.6,314.3,14.2,299.2,14.2z M236.4,234.6h-43.6v43.6h-34v-43.6h-43.6v-34h43.6V157h34 v43.6h43.6V234.6z M324.7,107.8H16v-66c0-14.2,11.5-25.7,25.6-25.7h257.5c14.1,0,25.6,11.5,25.6,25.7V107.8z" style="fill: rgb(0, 150, 94);"/>
    </g>
    <polygon class="st2" points="166.947 131.645 162.747 162.045 152.547 131.645 143.747 131.645 133.347 162.045 129.147 131.645 115.347 131.645 123.447 181.445 138.847 181.445 148.047 155.445 157.247 181.445 172.647 181.445 180.747 131.645" style="fill: rgb(82, 82, 80);"/>
    <polygon class="st0" points="315.547 296.245 315.547 330.145 271.847 330.145 271.847 373.845 237.847 373.845 237.847 330.145 194.247 330.145 194.247 296.245 237.847 296.245 237.847 252.545 271.847 252.545 271.847 296.245" style="fill: rgb(255, 255, 255);"/>
    <polygon class="st2" points="218.947 131.645 209.747 157.745 200.647 131.645 185.147 131.645 177.047 181.445 190.847 181.445 195.147 151.845 205.347 181.445 214.047 181.445 224.447 151.845 228.647 181.445 242.447 181.445 234.447 131.645" style="fill: rgb(82, 82, 80);"/>
    <g transform="matrix(1, 0, 0, 1, 79.146965, 95.544685)">
      <path class="st1" d="M298.9,47.9V36.1h-43.5v11.8h14.8v38.1h14V47.9H298.9z M241.7,66H231l1-3.4c1.4-4.8,2.8-10.4,4.3-16.8h0.1 c1.4,6.1,2.8,11.7,4.3,16.8L241.7,66z M244.8,77l2.5,9h14.8l-16.7-49.8h-18l-16.7,49.8h14.8l2.5-9H244.8z M193.7,59.6L211,36.1 h-16.9l-13,21h-0.1v-21h-14v49.8h14V63.6h0.1l13.4,22.3H212L193.7,59.6z" style="fill: rgb(0, 150, 94);"/>
    </g>
    <g id="DENMARK_2_" transform="matrix(1, 0, 0, 1, 79.146965, 95.544685)">
      <g>
        <g>
          <defs>
            <rect id="SVGID_1_" x="255.4" y="275.1" width="48.2" height="28.1"/>
          </defs>
          <clipPath id="SVGID_00000070101915314791916810000009691664906050246586_">
            <rect x="255.4" y="275.1" width="48.2" height="28.1" style="overflow: visible;"/>
          </clipPath>
          <rect x="255.4" y="275.1" style="clip-path:url(#SVGID_00000070101915314791916810000009691664906050246586_);fill:#BE003B;" width="48.2" height="28.1"/>
          <rect x="271.1" y="275.1" style="clip-path:url(#SVGID_00000070101915314791916810000009691664906050246586_);fill:#FFFFFF;" width="5.2" height="28.1"/>
          <rect x="255.4" y="286.5" style="clip-path:url(#SVGID_00000070101915314791916810000009691664906050246586_);fill:#FFFFFF;" width="48.2" height="5.2"/>
        </g>
      </g>
    </g>
  </g>
</svg>