<?xml version="1.0" encoding="utf-8"?>
<svg viewBox="0 0 512 512" width="512" height="512" style="shape-rendering: geometricprecision;" xmlns="http://www.w3.org/2000/svg">
  <g id="Layer_x0020_1" transform="matrix(0.2366199940443039, 0, 0, 0.2366199940443039, 0.001993000041693449, 0.00203300011344254)">
    <g id="_2208654150064">
      <rect class="fil0" x="-0.01" y="-0.01" width="2163.81" height="2163.81" style="fill: rgb(254, 254, 254);"/>
      <g>
        <path class="fil1" d="M392.43 1382.73l73.01 -3.96 9.95 3.96c0,0 -23.63,3.8 -39.3,22.84 -9.21,11.23 -15.28,51.63 -16.56,65.53 -2.63,29.81 57.91,32.11 69.5,4.98 8.29,-20.52 22.84,-76.14 22.7,-93.02l58.66 -3.94 9.89 3.94c0,0 -19.02,9.64 -28.01,40.06 -8.9,30.46 -26.47,96.3 -46.69,151.59 -10.23,22.51 -22.98,36.28 -83.06,36.12 -50.66,-0.34 -84.25,-2.67 -75.47,-47.02 6.1,-25.29 9.58,-39.05 9.58,-39.05l45.81 -3.94 10.14 3.94c0,0 -19.55,5.62 -24.8,31.79 -5.34,26.14 -2.38,44.96 30.42,44.65 32.78,-0.33 41.42,-19.51 46.4,-29.44 4.9,-9.94 23.12,-71.18 23.12,-71.18 0,0 -14.04,9.01 -37.73,9.94 -23.66,0.89 -69.21,-0.71 -75.78,-31.45 -2.49,-11.08 4.44,-36.11 7.8,-45.88 6.6,-25.14 7.74,-29.93 10.42,-50.45z" style="fill: rgb(43, 42, 41);"/>
        <path class="fil1" d="M288.54 1501.5l46.71 -10.23 -9.77 -4.06 -32.65 2.74c7.01,-23.35 15.3,-49.6 23.66,-72.86 7.49,-18.74 26.84,-28.68 37.85,-33.78l-9.96 -3.97c-24.51,-0.02 -47.11,3.21 -72.49,3.43 -8.81,0 -30.37,1.6 -30.37,1.6 -37.39,4.04 -74.66,17.42 -90.54,61.12 -15.69,53.29 -42.5,106.65 -58.19,159.99l9.85 3.97 73.09 0c-20.14,-8.6 -25.02,-21.73 -21.78,-34.57 5.36,-19.83 13.95,-43.41 19.34,-63.24 24.05,-1.59 47.25,-2.4 72.41,-4.16 -0.44,1.67 -35.36,79.72 -40.94,98l9.9 3.97c17.47,0.26 64.51,0.26 81.66,0.26 -13.13,-5.35 -28.45,-14.43 -25.22,-30.79 5.38,-26.8 8.07,-54.41 17.45,-77.42zm-38.43 -12.11l-6.16 0c-21.52,-0.23 -44.34,0 -65.24,-0.23 12.02,-52.81 36.54,-76.37 65.24,-86.3 20.44,-7.06 43.2,-7.77 65.23,-7.53 -13.1,6.74 -26.81,15.28 -35.68,31.66 -11.81,18.18 -14.54,42.07 -23.38,62.4z" style="fill: rgb(43, 42, 41);"/>
        <path class="fil1" d="M577.79 1473.5l-9.99 -4.03c8.62,-28.04 35.56,-75.39 32.95,-85.24 64.16,0.22 133.19,-4.15 197.74,-3.98l9.92 3.98c-21.09,14.13 -54.24,35.25 -73.74,36.58 -12.56,0 -23.28,-1.86 -35.83,-9.08 -15.81,54.55 -31.28,110.94 -47.04,165.51 -2.71,11.11 8.54,20.45 22.43,26.91 2.15,1.45 4.4,1.93 6.8,2.18l10.05 4.04c-31.22,0.55 -62.28,-0.83 -93.5,-0.28l-9.88 -3.92c19.39,-65.17 50.61,-130.86 69.94,-196.06 -22.16,3.51 -53.97,18.21 -79.84,63.4z" style="fill: rgb(43, 42, 41);"/>
        <path class="fil1" d="M795.82 1597.89c23.67,3.15 48.15,-36.26 66.04,-76.72 11.61,-26.25 24.03,-56.33 13.03,-77.12 -4.76,-7.68 -14.09,-8.56 -24.81,9.35l-9.91 -4.01c4.25,-17 30.73,-35.41 46.95,-36.77 17.03,-2.06 27.34,2.42 35.17,16.83 12.1,28.64 -9.2,83.01 -23.61,107.71 -14.18,23.67 -31.33,45.99 -53.31,61.25 -13.46,9.17 -32.37,11.55 -48.17,11.81 -15.26,-0.6 -27.16,-4.04 -41.4,-8.95l-10.23 -4.5c-8.99,-5.84 -6.29,-11.22 -8.32,-20.24 -14.22,-64.12 33.51,-137.28 77.64,-171.06 15.84,-12.06 41.72,-23.05 59.83,-23.05 3.99,-0.03 7.63,0.15 10.97,0.52l-0.31 -2.13 8 2.37c13.24,4.29 23.33,15.16 27.84,26.03l-9.89 -3.98 -1.16 -0.72c-10.35,-3.41 -19.54,-3.29 -31.5,-0.52 -37,10.24 -60.32,42.86 -81.92,80.2 -14.69,25.69 -45.87,107.23 -0.96,113.69z" style="fill: rgb(43, 42, 41);"/>
        <path class="fil2" d="M382.46 1378.77l83.04 0c0,0 -23.66,3.78 -39.34,22.83 -9.26,11.23 -15.25,51.61 -16.56,65.55 -2.66,29.77 57.96,32.11 69.51,4.94 8.28,-20.52 22.82,-76.13 22.7,-93l68.56 0c0,0 -19.1,9.61 -28.04,40.04 -8.93,30.47 -26.47,96.33 -46.61,151.59 -10.32,22.55 -23.08,36.29 -83.14,36.08 -50.65,-0.29 -84.19,-2.63 -75.45,-46.99 6.08,-25.28 9.61,-39.06 9.61,-39.06l55.94 0c0,0 -19.59,5.61 -24.83,31.76 -5.33,26.14 -2.35,45.06 30.46,44.68 32.76,-0.33 41.33,-19.51 46.32,-29.46 5,-9.9 23.16,-71.17 23.16,-71.17 0,0 -14.05,9.03 -37.67,9.96 -23.72,0.9 -69.2,-0.67 -75.87,-31.49 -2.46,-11.08 4.52,-36.04 7.8,-45.83 6.6,-25.15 7.79,-29.96 10.41,-50.46z" style="fill: rgb(227, 30, 36);"/>
        <path class="fil2" d="M278.59 1497.51l46.78 -10.2 -42.42 -1.34c6.94,-23.28 15.24,-49.58 23.56,-72.87 7.54,-18.74 26.89,-28.69 37.87,-33.78 -29.01,0.29 -53.47,-0.76 -82.43,-0.52 -8.9,0 -30.38,1.59 -30.38,1.59 -37.32,4.02 -74.68,17.42 -90.49,61.08 -16.13,54.71 -32.28,109.35 -48.3,164.01l72.97 0c-20.12,-8.61 -24.96,-21.73 -21.75,-34.56 5.39,-19.85 13.96,-43.4 19.35,-63.23 24.04,-1.61 47.19,-2.4 72.44,-4.11 -0.55,1.82 -31.06,101.91 -31.06,101.91 17.45,0.27 64.51,0.27 81.68,0.27 -13.22,-5.33 -28.5,-14.46 -25.28,-30.82 5.36,-26.8 8.11,-54.41 17.45,-77.43zm-38.44 -12.07l-6.2 0c-21.44,-0.3 -44.27,0 -65.2,-0.3 12.11,-52.72 36.52,-76.33 65.2,-86.24 20.52,-7.08 43.26,-7.78 65.34,-7.51 -13.2,6.7 -26.89,15.27 -35.74,31.6 -11.8,18.24 -14.55,42.1 -23.4,62.46z" style="fill: rgb(227, 30, 36);"/>
        <path class="fil2" d="M567.81 1469.53c7.78,-29.17 26.16,-77.27 23.03,-89.26 68.45,0.23 138.92,-0.29 207.68,0 -21.13,14.12 -54.25,35.24 -73.81,36.59 -12.57,0 -23.19,-1.85 -35.8,-9.05 -15.77,54.5 -31.29,110.94 -47.05,165.44 -3.73,15.48 19.46,27.52 39.31,33.16 -31.3,0.49 -62.27,-0.81 -93.57,-0.29 19.75,-66.55 40.37,-133.39 60.15,-199.97 -22.16,3.5 -54.06,18.17 -79.94,63.38z" style="fill: rgb(227, 30, 36);"/>
        <path class="fil2" d="M785.9 1593.93c23.7,3.14 48.15,-36.25 66.03,-76.73 11.56,-26.27 24.07,-56.37 12.99,-77.08 -4.67,-7.69 -14.02,-8.57 -24.76,9.31 -0.31,-21.81 17.83,-39.18 37.02,-40.75 17.05,-2.09 27.31,2.41 35.26,16.81 12.03,28.65 -9.28,83.02 -23.7,107.7 -14.14,23.68 -31.26,46 -53.35,61.23 -13.35,9.21 -32.29,11.56 -48.05,11.86 -39.42,-1.63 -55.81,-15.03 -60,-33.7 -14.18,-64.12 33.54,-137.29 77.71,-171.06 15.75,-12.09 41.68,-23.04 59.89,-23.04 29.31,-0.26 39.9,11.02 46.46,26.78 -15.53,-7.89 -26.53,-8.95 -42.58,-5.24 -37.09,10.22 -60.38,42.89 -81.91,80.18 -14.72,25.79 -45.94,107.26 -0.98,113.73z" style="fill: rgb(227, 30, 36);"/>
      </g>
      <g>
        <path class="fil1" d="M1138.22 1609.81l88.07 0c0,0 -6.64,-2.57 -20.62,-8.5 -15.25,-6.92 -8.14,-26.92 -8.14,-26.92 0,0 31.4,-113.22 48.98,-150.61 17.52,-37.39 48.96,-40.72 48.96,-40.72l-9.97 -3.91 -198.32 3.91c0,0 8.84,9.44 -2.73,41.05 -8.69,23.67 -63.49,148.68 -75.1,182.06l9.9 3.9 89.84 0 -10.1 -4c-3.07,-1.22 -5.96,-2.87 -8.78,-4.18 -10.15,-4.73 -16.34,-9.47 -8.38,-31.79 9.05,-25.65 56.08,-170.33 56.08,-170.33l63.31 0 -72.92 206.11 9.91 3.95z" style="fill: rgb(43, 42, 41);"/>
        <path class="fil1" d="M1833.29 1543c-0.5,16.15 8.97,34.04 32.54,35.55 17.94,0.36 39.17,-0.58 51.68,-11.79l28.94 -25.93 9.98 3.93c0,0 -32.53,31.23 -54.62,46.44 -13.39,9.16 -35.79,18.61 -57.58,18.61 -38.29,-0.76 -45.95,-16.9 -49.71,-33.27 -14.5,-64.06 32.96,-137.37 75.94,-172.54 17.71,-14.4 37.84,-21.62 61.61,-21.57 29.46,-0.24 42.81,18.68 45.71,28.03 4.91,15.91 3.26,35.73 -2.5,51.38 21.1,3.21 65.57,8.19 87.33,11.74l9.98 3.89c0,0 -111.91,1.54 -149.44,1.54l-9.85 -3.98c1.82,-3.72 17.98,-12.45 19.5,-16.15 14.66,-35.81 14.91,-68.8 -11.4,-62.33 -19.82,5.76 -47.11,42.56 -66.21,81.19 -8.43,17.1 -19.89,40.71 -21.91,65.26z" style="fill: rgb(43, 42, 41);"/>
        <path class="fil1" d="M1417.5 1383.05c-38.75,0 -94.36,11.25 -115.19,59.91 -18.99,47.79 -59.19,139.68 -66.47,162.85l9.82 4 74.97 0c0,0 -24.83,-7.47 -20.83,-26.33 2.6,-12.47 33.26,-125.63 54.58,-152.42 21.39,-26.8 52.64,-33.25 75.94,-33.75 -11.46,28.4 -69.38,177.42 -79.07,208.37l9.86 3.87 87.6 0 -10.05 -3.96c-11.17,-2.8 -22.52,-9.7 -22.18,-22.1 0.52,-19.34 52.65,-167.33 55.59,-173.78 3.05,-6.45 8.97,-18.36 34.24,-26.65l-10.04 -3.97c-32.15,0 -45.66,3.97 -78.77,3.97z" style="fill: rgb(43, 42, 41);"/>
        <path class="fil3" d="M1774.06 1429.46c-4.19,-7.74 -8.26,-12.28 -15.99,-16.24l-12.25 -3.88c-2.4,-0.02 -4.25,2.96 -6.99,3.29 -13.96,1.18 -40.81,23.18 -46.92,36.75l9.97 4.03c10.78,-17.91 20.05,-17.03 24.81,-9.35 11.04,20.79 -1.53,50.87 -13.02,77.12 -17.89,40.46 -42.49,79.87 -66.05,76.72 -39.88,-5.73 -19.83,-70.54 -4.47,-103.06 15.66,-2.71 30.1,-5.63 40.97,-7.68l-10.06 -3.94 -25.59 1.27c0.04,-0.1 0.1,-0.21 0.15,-0.28 21.47,-37.34 44.76,-69.95 81.91,-80.2 12.25,-2.85 21.83,-2.47 32.49,1.2l10.04 4.02c-6.54,-15.76 -17.09,-27.04 -46.5,-26.79 -18.11,0 -44.09,10.99 -59.89,23.05 -22.05,16.91 -45.01,43.63 -60.71,74.16 -0.31,-0.03 -0.53,-0.07 -0.81,-0.08 -14.29,-0.35 -24.66,-0.48 -43.67,-0.8 11.42,-35.2 21.95,-66.15 23.3,-69.04 2.99,-6.45 11.4,-18.36 36.77,-26.65l-10.08 -3.94c-32.21,0 -32.38,3.94 -66.4,3.94 -10.27,27.91 -68.03,186.55 -78.58,222.52l9.85 3.97 87.58 0 -10.04 -3.96c-1.85,0.04 -4.27,-0.69 -5.96,-1.46 -8.71,-4.01 -16.49,-10.19 -16.25,-20.64 0.18,-8.86 10.71,-44.59 22.33,-81.44 13.72,0.18 25.69,-0.31 42.37,-0.66 -9.07,24.56 -12.84,50.53 -7.4,75.15 4.23,18.63 20.67,32.13 59.99,33.69 15.83,-0.26 34.76,-2.64 48.14,-11.81 22.05,-15.25 39.17,-37.57 53.32,-61.25 14.46,-24.7 35.72,-79.07 23.62,-107.71z" style="fill: rgb(43, 42, 41);"/>
        <path class="fil2" d="M1128.29 1605.82l88.12 0c0,0 -6.66,-2.6 -20.61,-8.93 -15.2,-6.95 -8.23,-26.48 -8.23,-26.48 0,0 31.41,-113.19 48.97,-150.6 17.57,-37.41 49,-40.7 49,-40.7l-208.31 0c0,0 8.94,9.41 -2.69,41.03 -10.16,27.59 -65.25,185.99 -65.25,185.99l89.95 0c0,0 -11.29,-4.66 -18.87,-8.23 -10.22,-4.71 -16.38,-9.47 -8.54,-31.78 9.2,-25.64 56.13,-170.3 56.13,-170.3l63.31 0 -62.96 210.01z" style="fill: rgb(227, 30, 36);"/>
        <path class="fil2" d="M1823.36 1539.04c-0.5,16.14 8.94,34.03 32.51,35.49 44.15,0.79 90.59,-33.73 90.59,-33.73 0,0 -32.48,31.19 -54.62,46.45 -13.4,9.17 -35.76,18.57 -57.52,18.57 -38.27,-0.7 -45.98,-16.89 -49.73,-33.24 -14.55,-64.05 32.96,-137.38 75.97,-172.55 17.65,-14.4 37.79,-21.6 61.6,-21.55 29.42,-0.26 42.79,18.64 45.65,28.01 4.99,15.87 3.27,35.75 -2.41,51.38 32.44,4.97 97.3,15.67 97.3,15.67 0,0 -112.04,1.49 -149.44,1.49 23.29,-42.24 29.49,-90.1 -1.76,-82.45 -19.86,5.7 -47.2,42.52 -66.19,81.19 -8.46,17.11 -19.98,40.71 -21.95,65.26z" style="fill: rgb(227, 30, 36);"/>
        <path class="fil2" d="M1407.53 1379.11c-38.68,0 -94.37,11.25 -115.25,59.91 -21.83,55.07 -56.52,166.8 -56.52,166.8l74.97 0c0,0 -24.89,-7.45 -20.87,-26.32 2.61,-12.46 33.27,-125.62 54.58,-152.41 21.33,-26.82 52.68,-33.25 75.96,-33.75 -12.87,31.76 -69.24,212.26 -69.24,212.26l87.65 0c0,0 -32.77,-6.73 -32.29,-26.1 0.5,-19.35 52.64,-167.33 55.67,-173.74 2.9,-6.49 8.86,-18.39 34.25,-26.65 -50.19,0 -50.19,0 -88.91,0z" style="fill: rgb(227, 30, 36);"/>
        <path class="fil2" d="M1764.17 1425.49c-7.93,-14.41 -18.17,-18.91 -35.22,-16.81 -19.22,1.57 -37.29,18.94 -37.06,40.75 10.76,-17.88 20.09,-17.01 24.86,-9.31 10.99,20.71 -1.46,50.81 -13.07,77.08 -17.89,40.48 -42.37,79.87 -66,76.73 -39.88,-5.73 -19.81,-70.54 -4.49,-103.05 15.67,-2.73 30.14,-5.63 40.91,-7.67 -11.68,-0.94 -23.38,-1.72 -35.6,-2.73 0.09,-0.06 0.12,-0.18 0.19,-0.27 21.54,-37.29 44.79,-69.96 81.85,-80.18 15.99,-3.71 27.09,-2.65 42.52,5.24 -6.56,-15.77 -17.07,-27.04 -46.47,-26.78 -18.13,0 -43.97,10.95 -59.82,23.04 -22.09,16.9 -45.06,43.61 -60.73,74.18 -0.26,-0.04 -0.49,-0.09 -0.81,-0.12 -14.24,-0.32 -24.64,-0.52 -43.68,-0.84 11.38,-35.17 21.96,-66.1 23.29,-68.98 2.98,-6.49 11.46,-18.39 36.69,-26.65 -50.09,0 -37.74,0 -76.39,0 -11.68,31.61 -68.73,226.49 -68.73,226.49l87.61 0c0,0 -32.78,-6.73 -32.3,-26.1 0.23,-8.81 10.8,-44.58 22.4,-81.42 13.73,0.18 25.66,-0.32 42.37,-0.66 -9.15,24.59 -12.89,50.55 -7.39,75.16 4.25,18.67 20.57,32.07 60.03,33.7 15.76,-0.3 34.61,-2.66 48.06,-11.86 22.05,-15.23 39.14,-37.55 53.32,-61.23 14.4,-24.68 35.71,-79.04 23.66,-107.7z" style="fill: rgb(227, 30, 36);"/>
      </g>
      <path class="fil3" d="M1531.37 893.57l-1343.89 -0.66c-103.53,4.19 -100.03,63.72 -6.24,64.43l1352.95 0c59.56,0.69 126.1,-8.39 177.17,-16.73 80.66,-13.4 270.07,-7.07 347.21,-9.2l0 -6.96c-75.67,1.31 -275.06,-2.84 -346.49,-13.99 -73.52,-11.92 -143.54,-16.88 -180.71,-16.88zm-96.68 -72.12c-76.22,0 -146.96,1.41 -215.61,3.56 -112.73,6.94 -198.16,5.51 -332.81,5.51 -111.35,1.43 -223.29,-1.99 -345.18,-9.77 -86.07,-2.88 -181.26,-7.72 -260.35,-4.9 -121.28,0.79 -138.67,46.22 -65.89,58.88 20.2,2.78 41.23,4.91 68.63,5.62l1252.15 3.44c59.49,-0.66 127.47,-11.94 179.26,-17.45 79.8,-12.7 201.98,-7.07 278.24,-9.14l0 -7.07c-75.54,-1.39 -206.8,2.88 -279.04,-6.97 -76.25,-9.03 -233.07,-24.38 -279.41,-21.69zm-43.25 -77.71c-76.34,3.54 -103.06,8.38 -172.36,14.81 -82.64,10.51 -98.75,11.78 -177.82,11.78 -34.37,1.47 -121.18,0 -194.12,-2.86 -91.02,-1.31 -195.32,-26.51 -274.42,-27.94 -92.5,-2.13 -123.32,53.9 -48.43,67.15 20.36,3.71 36.42,6.36 63.8,4.93 81.15,-8.4 115.42,-23.8 257.71,-29.34 48.4,-2.12 97.38,-1.42 142.2,-2.12 98.12,0.7 180.64,-0.72 231.07,9.78 41.26,8.38 101.45,20.99 167.36,21.68 50.43,0.69 85.5,0.69 147.1,-9.01 33.6,-7.04 66.49,-9.86 95.89,-13.4 74.26,-8.34 351.09,-4.16 427.54,-6.93l0 -6.32c-75.73,-1.42 -356.06,-1.42 -430.26,-6.89 -76.41,-8.5 -189.15,-27.41 -235.28,-25.32zm4.14 -79.88c-88.26,1.42 -93.16,15.44 -174.5,23.85 -81.83,6.23 -98.62,5.6 -177.81,6.23 -33.55,0.82 -70.09,0 -142.04,-1.99 -47.02,-2.82 -92.55,-7.72 -133.22,-12.65 -39.96,-8.43 -64.5,-14.03 -105.66,-16.05 -26.02,0 -46.28,2.02 -63.73,5.56 -86.03,15.42 -84.13,47.71 -7.7,58.03 23.76,4.28 69.29,7.1 95.91,3.56 80.48,-3.56 74.89,-20.3 214.41,-25.28 48.25,-1.93 44.04,-0.52 88.86,-1.28 98.07,0 178.56,-2.81 230.99,4.83 44.25,2.12 122.62,25.93 183.57,25.93 50.52,-1.36 82.63,-8.41 130.29,-14.67 33.59,-6.96 64.47,-8.39 93.84,-11.26 72.81,-6.21 283.89,-0.66 360.8,-2.72l0 -7.04c-75.54,-1.42 -286.57,-1.42 -360.8,-6.23 -110.71,-4.29 -179.26,-29.42 -233.2,-28.81zm6.17 -74.15c-84.54,0 -111.92,-0.71 -176.31,-1.45l-482.69 -7.64c-27.98,0.57 -58.07,4.12 -75.5,7.64 -78.43,15.42 -86.87,49.73 -7.84,61.61 28.1,4.24 89.73,0 129.62,-7.57 57.51,-9.26 124.01,-14.88 183.43,-18.35 38,-1.44 66.67,-2.13 105.18,0.72 46.19,4.24 93.86,4.94 146.37,14.77 44.15,2.05 79.81,16.85 140.77,16.85 53.18,0 112.69,-14.8 173.03,-18.97 33.51,-6.98 61.59,-2.15 90.96,-4.28 72.14,-3.43 356.75,2.85 432.94,0.83l0 -7.09c-77.66,-0.71 -347.63,-2.11 -430.21,-10.42 -97.33,-8.48 -129.42,-27.37 -229.76,-26.66zm131.12 376.75l-1345.4 3.57c-133.76,1.28 -132.44,69.31 0.69,64.37 200.28,-7.67 385.92,-8.39 560.97,-10.52 289.16,-2.79 547.65,-2.06 785.04,2.85 59.56,0.68 126.77,-9.12 178.58,-18.27 79.81,-12.56 201.28,-5.67 278.41,-7.6l0 -7.09c-77.13,0 -205.59,-0.71 -279.1,-9.12 -74.23,-10.49 -142.08,-18.19 -179.2,-18.19zm-98.81 68.58c37.88,0 189.18,14.68 280.83,28.1 75.55,6.29 264.03,4.89 340.28,5.48l0 6.41c-76.24,2.8 -261.17,-2.12 -340.28,8.41 -77.05,15.36 -186.28,20.93 -270.4,20.93 -107.05,-2.06 -203.06,-13.33 -304.46,-20.93 -116.39,-4.9 -337.7,0.73 -498.04,4.21 -146.35,11.15 -221.99,23 -305.33,20.29 -254.24,7.07 -245.13,-72.89 -5.69,-67.24 100.85,0.69 184.28,21.66 310.26,32.21 170.31,-2.73 471.27,-2.73 500.8,-4.87 86.11,-3.49 158.95,-35.06 292.03,-32.99zm-1.36 79.14c-129.62,7.07 -199.6,18.9 -291.39,28.1 -29.5,2.08 -345.2,-1.5 -516.03,1.33 -133.84,-9.74 -160.39,-25.26 -266.26,-25.88 -35.78,-0.69 -71.39,-0.69 -102.19,2.75 -87.66,5.69 -78.42,57.49 50.36,69.42 123.33,4.83 214.35,-27.97 266.13,-31.52 156.93,-2.12 446.27,-4.99 565.93,-2.87 114.2,3.58 197.56,25.3 304.71,27.31 102.81,0.78 196.04,-18.9 270.13,-23.73 79.17,-9.87 197.16,-4.87 274.33,-7.08l0 -6.99c-77.16,0 -198.69,0.79 -275.05,-6.26 -91.56,-13.22 -195.3,-27.25 -280.67,-24.56z" style="fill: rgb(43, 42, 41);"/>
      <g>
        <path class="fil3" d="M1857.88 671.99l0 -62.21c-0.75,-15.25 21.23,-15.25 36.38,-14.63l-0.43 27.45 -29.95 0 0 13.44 30.39 0 0 35.95 12.89 0 0.65 -35.95 29.74 0 0 -13.44 -29.74 0 0 -40.85 -27.52 0c-20.65,0 -35.93,10.33 -35.93,25.02l0 65.22 13.54 0z" style="fill: rgb(43, 42, 41);"/>
        <path class="fil3" d="M1881.57 568.94c34.05,0 62.19,28.15 62.19,62.17 0,34.79 -28.13,62.74 -62.19,62.74l0 -3.02c32.86,0 59.7,-26.86 59.7,-59.73 0,-32.93 -26.84,-59.68 -59.7,-59.68l0 -2.49zm0 2.49c-32.89,0 -59.61,26.76 -59.61,59.68 0,32.87 26.71,59.73 59.61,59.73l0 3.02c-34.76,0 -62.71,-27.96 -62.71,-62.74 0,-34.02 27.95,-62.17 62.71,-62.17l0 2.49z" style="fill: rgb(43, 42, 41);"/>
      </g>
    </g>
  </g>
</svg>