<?xml version="1.0" encoding="utf-8"?>
<svg viewBox="0 0 512 512" xmlns="http://www.w3.org/2000/svg">
  <g transform="matrix(1.7208540439605715, 0, 0, 1.7208540439605715, 61.58464431762701, 141.7023620605469)" style="">
    <path class="cls-3" d="m0,122.2c0-1.21.23-1.8,1.17-2.58l1.45-1.21c.92-.76,1.39-.78,2.54-.78h3.11c.66,0,1.35.14,1.35.98s-.78.98-1.35.98h-3.46c-.39,0-.78.2-1.13.49l-1.19,1c-.31.25-.53.45-.53.84v2.44c0,.39.23.59.53.84l1.19,1c.35.29.74.49,1.13.49h3.46c.57,0,1.35.12,1.35.98s-.7.98-1.35.98h-3.11c-1.15,0-1.62-.02-2.54-.78l-1.45-1.21c-.94-.78-1.17-1.37-1.17-2.58v-1.9Z" style="fill: rgb(29, 29, 27); stroke-width: 0px;"/>
    <path class="cls-3" d="m15.99,119.6c-.57,0-1.35-.12-1.35-.98s.7-.98,1.35-.98h2.7c1.02,0,1.76.1,2.54.88s.86,1.35.88,2.33l.21,6.67c.02.57-.27,1.15-.92,1.15-.51,0-1.02-.43-1-.98l-1.35.7c-.55.29-.57.29-1.21.29h-1.88c-.88,0-1.52-.1-2.23-.7-.82-.68-1.02-1.39-1.02-2.42v-.86c0-.94.23-1.54.96-2.19.68-.59,1.43-.74,2.29-.74h4.22v-.45c0-1.47-.33-1.72-1.74-1.72h-2.44Zm-.02,4.14c-.53,0-1.31.14-1.31.86v1.31c0,.66.8.8,1.27.8h2.17l2.17-1.13v-.43c0-1.08-.31-1.41-1.39-1.41h-2.91Z" style="fill: rgb(29, 29, 27); stroke-width: 0px;"/>
    <path class="cls-3" d="m25.39,119.09c0-.72.08-1.45.98-1.45.78,0,.98.66.98,1.31v.8l1.54-1.27c.55-.45,1.13-.84,1.74-.84h1.58c.76,0,1.39.25,1.92.78.66.66.88,1.33.88,2.23,0,.68-.12,1.37-.96,1.37-.72,0-1-.57-1-1.21,0-.33,0-.57-.21-.86-.25-.35-.72-.35-1.19-.35h-.57c-.37,0-.63.18-.98.47l-2.74,2.27v4.98c0,.68-.14,1.35-.98,1.35s-.98-.68-.98-1.35v-8.23Z" style="fill: rgb(29, 29, 27); stroke-width: 0px;"/>
    <path class="cls-3" d="m59.3,125.8l.45.47c.31.31.9.9.9,1.37,0,.57-.39,1.02-.98,1.02-.37,0-.61-.18-.86-.45l-1.04-1.08-1.29,1.08c-.47.39-.53.45-1.17.45h-1.86c-.78,0-1.45-.12-2.05-.68-.66-.61-.86-1.35-.86-2.19v-1.29c0-.72,0-.8.57-1.29l1.66-1.45-1.92-2.07c-.31-.35-.31-.51-.31-.96v-1.43c0-1.7,1.17-2.83,2.87-2.83h2.27c1.72,0,2.95,1.04,2.95,2.83v1.43c0,.78-.12.82-.72,1.33l-2.19,1.88,2.19,2.31.39-.33c.35-.29.82-.8,1.31-.8.57,0,1.04.49,1.04,1.07,0,.37-.27.66-.53.88l-.82.72Zm-2.72-7.27v-.72c0-.88.12-1.29-.9-1.29h-2.27c-.96,0-.82.49-.82,1.29v.72l1.74,1.92,2.25-1.92Zm-2.42,4.73l-1.58,1.39v1.15c0,.51-.1.82.98.82h1.66l1.15-.98-2.21-2.38Z" style="fill: rgb(29, 29, 27); stroke-width: 0px;"/>
    <path class="cls-3" d="m76.17,119.09c0-.72.08-1.45.98-1.45.78,0,.98.66.98,1.31v.8l1.54-1.27c.55-.45,1.13-.84,1.74-.84h1.58c.76,0,1.39.25,1.93.78.66.66.88,1.33.88,2.23,0,.68-.12,1.37-.96,1.37-.72,0-1-.57-1-1.21,0-.33,0-.57-.21-.86-.25-.35-.72-.35-1.19-.35h-.57c-.37,0-.63.18-.98.47l-2.74,2.27v4.98c0,.68-.14,1.35-.98,1.35s-.98-.68-.98-1.35v-8.23Z" style="fill: rgb(29, 29, 27); stroke-width: 0px;"/>
    <path class="cls-3" d="m92.17,119.6c-.57,0-1.35-.12-1.35-.98s.7-.98,1.35-.98h2.7c1.02,0,1.76.1,2.54.88s.86,1.35.88,2.33l.21,6.67c.02.57-.27,1.15-.92,1.15-.51,0-1.02-.43-1-.98l-1.35.7c-.55.29-.57.29-1.21.29h-1.88c-.88,0-1.52-.1-2.23-.7-.82-.68-1.02-1.39-1.02-2.42v-.86c0-.94.23-1.54.96-2.19.68-.59,1.43-.74,2.29-.74h4.22v-.45c0-1.47-.33-1.72-1.74-1.72h-2.44Zm-.02,4.14c-.53,0-1.31.14-1.31.86v1.31c0,.66.8.8,1.27.8h2.17l2.17-1.13v-.43c0-1.08-.31-1.41-1.39-1.41h-2.91Z" style="fill: rgb(29, 29, 27); stroke-width: 0px;"/>
    <path class="cls-3" d="m101.56,122.2c0-1.21.23-1.8,1.17-2.58l1.45-1.21c.92-.76,1.39-.78,2.54-.78h3.11c.66,0,1.35.14,1.35.98s-.78.98-1.35.98h-3.46c-.39,0-.78.2-1.13.49l-1.19,1c-.31.25-.53.45-.53.84v2.44c0,.39.23.59.53.84l1.19,1c.35.29.74.49,1.13.49h3.46c.57,0,1.35.12,1.35.98s-.7.98-1.35.98h-3.11c-1.15,0-1.62-.02-2.54-.78l-1.45-1.21c-.94-.78-1.17-1.37-1.17-2.58v-1.9Z" style="fill: rgb(29, 29, 27); stroke-width: 0px;"/>
    <path class="cls-3" d="m120.1,126.71h1.47c.66,0,1.35.14,1.35.98s-.78.98-1.35.98h-5c-.57,0-1.35-.12-1.35-.98s.7-.98,1.35-.98h1.56v-7.11h-1.56c-.57,0-1.35-.12-1.35-.98s.7-.98,1.35-.98h2.07c1.13,0,1.45.2,1.45,1.37v7.7Zm-2.97-13.04c0-.7.39-.92.92-.92h1.13c.53,0,.92.23.92.92v.94c0,.7-.39.92-.92.92h-1.13c-.53,0-.92-.23-.92-.92v-.94Z" style="fill: rgb(29, 29, 27); stroke-width: 0px;"/>
    <path class="cls-3" d="m128.92,121.61v5.71c0,.68-.14,1.35-.98,1.35s-.98-.68-.98-1.35v-8.23c0-.72.08-1.45.98-1.45s.98.74.98,1.43v.27l1.6-1.04c.51-.33,1.06-.66,1.7-.66h1.45c.76,0,1.23.2,1.82.72.88.76.84,1.6.88,2.66l.21,6.18c.02.7-.08,1.47-.96,1.47-.8,0-.96-.68-.98-1.33l-.21-6.06c-.04-1.21-.14-1.68-1.33-1.68h-.66c-.21,0-.41.06-.61.18l-2.91,1.82Z" style="fill: rgb(29, 29, 27); stroke-width: 0px;"/>
    <path class="cls-3" d="m139.65,121.3c0-.92.27-1.74.68-2.07l1.43-1.13c.41-.33.72-.47,1.23-.47h1.9c.53,0,1.17.39,1.92.98l.49.39v-.22c0-.61.33-1.15,1-1.15.86,0,.96.72.96,1.37v9.6c0,1.78-.14,2.15-.96,2.85l-.66.55c-.86.72-1.35.84-2.46.84h-3.26c-.57,0-1.35-.12-1.35-.98s.7-.98,1.35-.98h3.6c.41,0,.68-.18.98-.45l.49-.45c.16-.16.29-.45.29-.82v-2.7l-.41.41c-.45.45-1.06.96-1.62.96h-2.31c-.41,0-.88-.06-1.47-.59l-1.23-1.11c-.57-.53-.61-1.04-.61-1.84v-2.99Zm1.97,2.7c0,.41.02.84.25,1.02l.82.66c.14.12.33.18.57.18h1.43c.25,0,.53-.21.9-.51l1.52-1.25c.14-.12.21-.39.21-.66v-1.43c0-.27-.06-.53-.21-.66l-1.52-1.25c-.37-.31-.66-.51-.9-.51h-1.43c-.25,0-.43.06-.57.18l-.82.66c-.23.18-.25.61-.25,1.02v2.54Z" style="fill: rgb(29, 29, 27); stroke-width: 0px;"/>
    <path class="cls-3" d="m174.67,124.41c0,1.41-.1,1.95-1.25,2.85l-1.19.94c-.41.33-1.04.88-1.58.88h-1.33c-.88,0-1.29-.57-1.92-1.17l-.39-.37v3.95c0,.68-.14,1.35-.98,1.35s-.98-.68-.98-1.35v-12.41c0-.7.08-1.45.98-1.45.8,0,.98.63.98,1.29v.25l.39-.35c.51-.45,1.29-1.19,1.84-1.19h1.35c.47,0,1.11.49,1.64.9l1.19.92c1.15.9,1.25,1.45,1.25,2.85v2.11Zm-1.97-2.38c0-.37-.1-.59-.41-.86l-1.47-1.23c-.18-.16-.41-.35-.68-.35h-.51c-.29,0-.63.37-.84.57l-1.23,1.17c-.41.39-.55.61-.55,1.04v1.92c0,.29.08.66.29.84l1.5,1.41c.29.29.59.55.84.55h.51c.27,0,.49-.18.68-.35l1.47-1.23c.31-.27.41-.49.41-.86v-2.64Z" style="fill: rgb(29, 29, 27); stroke-width: 0px;"/>
    <path class="cls-3" d="m181.03,119.6c-.57,0-1.35-.12-1.35-.98s.7-.98,1.35-.98h2.7c1.02,0,1.76.1,2.54.88s.86,1.35.88,2.33l.21,6.67c.02.57-.27,1.15-.92,1.15-.51,0-1.02-.43-1-.98l-1.35.7c-.55.29-.57.29-1.21.29h-1.88c-.88,0-1.52-.1-2.23-.7-.82-.68-1.02-1.39-1.02-2.42v-.86c0-.94.23-1.54.96-2.19.68-.59,1.43-.74,2.29-.74h4.22v-.45c0-1.47-.33-1.72-1.74-1.72h-2.44Zm-.02,4.14c-.53,0-1.31.14-1.31.86v1.31c0,.66.8.8,1.27.8h2.17l2.17-1.13v-.43c0-1.08-.31-1.41-1.39-1.41h-2.91Z" style="fill: rgb(29, 29, 27); stroke-width: 0px;"/>
    <path class="cls-3" d="m190.43,119.09c0-.72.08-1.45.98-1.45.78,0,.98.66.98,1.31v.8l1.54-1.27c.55-.45,1.13-.84,1.74-.84h1.58c.76,0,1.39.25,1.93.78.66.66.88,1.33.88,2.23,0,.68-.12,1.37-.96,1.37-.72,0-1-.57-1-1.21,0-.33,0-.57-.21-.86-.25-.35-.72-.35-1.19-.35h-.57c-.37,0-.63.18-.98.47l-2.74,2.27v4.98c0,.68-.14,1.35-.98,1.35s-.98-.68-.98-1.35v-8.23Z" style="fill: rgb(29, 29, 27); stroke-width: 0px;"/>
    <path class="cls-3" d="m207.08,124.96c0,1.11-.04,1.74,1.31,1.74h1c.8,0,1.17-.06,1.37-.86.12-.47.49-.8.98-.8.55,0,1,.43,1,.98s-.35,1.25-.68,1.64c-.72.86-1.66,1-2.7,1h-1c-.98,0-1.84-.23-2.54-.98-.76-.84-.72-1.68-.72-2.74v-5.34h-.63c-.57,0-1.35-.12-1.35-.98s.7-.98,1.35-.98h.63v-2.01c0-.68.14-1.35.98-1.35s.98.68.98,1.35v2.01h3.3c.66,0,1.35.14,1.35.98s-.78.98-1.35.98h-3.3v5.36Z" style="fill: rgb(29, 29, 27); stroke-width: 0px;"/>
    <path class="cls-3" d="m219.18,119.6c-.41,0-1.11-.08-1.11.55,0,.33.25.45.53.57l4.91,2.23c1.27.57,1.92,1.37,1.92,2.79,0,1.99-1.35,2.93-3.24,2.93h-3.03c-1.02,0-1.72-.04-2.46-.61-.37-.29-.9-.66-.9-1.15,0-.55.47-.98,1.02-.98.31,0,.53.1.76.35.35.39.96.43,1.58.43h2.66c.7,0,1.64.06,1.64-1.09,0-.47-.57-.78-1.02-.98l-4.63-2.11c-1.08-.49-1.72-1.13-1.72-2.4,0-1.56,1.23-2.5,2.7-2.5h3.36c1.09,0,1.54.06,2.27.68.37.31.78.55.78,1.11s-.47.98-1,.98c-.37,0-.59-.14-.84-.41-.33-.35-.68-.39-1.21-.39h-2.99Z" style="fill: rgb(29, 29, 27); stroke-width: 0px;"/>
  </g>
  <g transform="matrix(1.7208540439605715, 0, 0, 1.7208540439605715, 61.58464431762701, 141.7023620605469)" style="">
    <path class="cls-4" d="m11.68,2.64h6.43c5.07,0,9.19,4.12,9.19,9.19v75.5c0,5.07-4.12,9.19-9.19,9.19h-6.43c-5.07,0-9.19-4.12-9.19-9.19V11.83C2.49,6.75,6.61,2.64,11.68,2.64Z" style="fill: rgb(255, 237, 0); stroke-width: 0px;"/>
    <path class="cls-3" d="m18.11,98.78h-6.43c-6.32,0-11.46-5.14-11.46-11.46V11.83C.22,5.51,5.36.37,11.68.37h6.43c6.32,0,11.46,5.14,11.46,11.46v75.5c0,6.32-5.14,11.46-11.46,11.46ZM11.68,4.9c-3.82,0-6.92,3.11-6.92,6.92v75.5c0,3.82,3.11,6.92,6.92,6.92h6.43c3.82,0,6.92-3.11,6.92-6.92V11.83c0-3.82-3.11-6.92-6.92-6.92h-6.43Z" style="fill: rgb(29, 29, 27); stroke-width: 0px;"/>
  </g>
  <g transform="matrix(1.7208540439605715, 0, 0, 1.7208540439605715, 61.58464431762701, 141.7023620605469)" style="">
    <path class="cls-2" d="m53,2.78c-5.08,0-9.19,4.11-9.19,9.19v75.5c0,5.07,4.11,9.19,9.19,9.19h6.43c5.08,0,9.19-4.12,9.19-9.19l-.44-36.34s20.58,24.81,30.44,36.93c3.68,4.52,7.98,6.84,12.31,7.93,4.28.67,14.66.17,19.43-.36,7.79-2.57,8.29-5.59,8.29-5.59l8.46-14.94h41.16s2.25,1.97,5.36,11.84c3.1,9.86,9.41,8.5,9.41,8.5,0,0,.46-.04,12.3-.04s7.61-10.71,7.61-10.71L186.02,3.76h-40.03l-27.69,64.39-19.67-21.25s16.92,0,14.94-24.81c-1.23-15.37-15.16-19.96-30.48-19.63-9.42-.41-24.04-.05-24.04-.05l-6.04.37Z" style="fill: rgb(255, 237, 0); fill-rule: evenodd; stroke-width: 0px;"/>
    <path class="cls-3" d="m59.43,98.93h-6.43c-6.32,0-11.46-5.14-11.46-11.46V11.97c0-6.29,5.1-11.42,11.38-11.46l5.98-.37c.23,0,14.81-.35,24.2.05,19.96-.42,31.57,7.3,32.72,21.71.77,9.64-1.09,16.97-5.54,21.78-2.37,2.56-5.05,3.93-7.24,4.65l14.54,15.71L143.9,2.87c.36-.83,1.18-1.37,2.08-1.37h40.03c.89,0,1.69.52,2.06,1.33l36.93,80.91s.03.07.05.11c.23.59,2.21,5.91-.55,9.96-1.74,2.56-4.83,3.86-9.17,3.86-9.34,0-11.55.03-12.05.04-2.98.5-8.95-.97-11.82-10.08-1.96-6.25-3.55-9.12-4.3-10.26h-38.73s-7.67,13.56-7.67,13.56c-.47,1.41-2.32,4.43-9.69,6.87-.15.05-.3.08-.46.1-4.67.52-15.36,1.08-20.03.35-.07,0-.13-.02-.2-.04-5.37-1.34-9.92-4.27-13.52-8.7-7.08-8.69-19.82-24.1-26.34-31.97l.37,29.93c0,6.35-5.14,11.49-11.46,11.49ZM71.68,4.53c-6.63,0-12.49.14-12.58.14l-5.96.37s-.09,0-.14,0c-3.82,0-6.92,3.11-6.92,6.92v75.5c0,3.82,3.11,6.92,6.92,6.92h6.43c3.82,0,6.92-3.11,6.92-6.92l-.44-36.31c-.01-.96.58-1.82,1.48-2.16.9-.33,1.91-.06,2.53.68.21.25,20.7,24.96,30.46,36.94,2.99,3.67,6.59,6.01,11,7.14,3.86.57,13.51.17,18.49-.37,5.42-1.83,6.47-3.71,6.58-3.93.05-.19.12-.38.22-.55l8.46-14.94c.4-.71,1.16-1.15,1.97-1.15h41.16c.55,0,1.08.19,1.5.56.46.4,2.89,2.9,6.02,12.87,2.35,7.48,6.37,7.03,6.82,6.96.08-.02.12-.02.21-.03.38-.04,4.59-.06,12.52-.06,2.74,0,4.57-.63,5.42-1.86,1.19-1.73.49-4.66.1-5.71L184.56,6.03h-37.08l-27.1,63.01c-.3.71-.94,1.21-1.7,1.34-.76.13-1.53-.13-2.05-.69l-19.67-21.25c-.61-.66-.77-1.62-.41-2.45s1.18-1.36,2.08-1.36c.18,0,4.77-.11,8.39-4.08,3.51-3.85,4.95-10,4.29-18.28-1.19-14.98-15.98-17.81-28.17-17.54-.05,0-.1,0-.15,0-3.38-.15-7.47-.19-11.3-.19Zm64.73,85.11s0,0,0,.01c0,0,0,0,0-.01Zm0,0s0,0,0,0c0,0,0,0,0,0Zm.05-.2h0Z" style="fill: rgb(29, 29, 27); stroke-width: 0px;"/>
  </g>
  <path class="cls-1" d="M 316.804 220.277 C 316.804 217.902 318.732 215.975 321.107 215.975 C 323.482 215.975 325.409 217.902 325.409 220.277 C 325.409 222.651 323.482 224.578 321.107 224.578 C 318.732 224.578 316.804 222.651 316.804 220.277 Z M 375.313 220.001 C 375.313 217.627 377.242 215.698 379.616 215.698 C 381.991 215.698 383.918 217.627 383.918 220.001 C 383.918 222.376 381.991 224.303 379.616 224.303 C 377.242 224.303 375.313 222.376 375.313 220.001 Z M 348.468 238.639 L 331.054 238.827 C 331.054 238.827 331.157 251.527 322.983 251.166 C 314.809 250.804 313.535 243.903 313.535 239.463 C 313.535 238.105 307.1 237.382 307.1 237.382 L 306.738 209.797 L 312.915 203.722 L 322.983 184.397 C 322.983 184.397 347.694 182.745 350.379 182.435 C 353.51 182.985 377.757 184.036 377.757 184.036 L 387.824 203.361 L 394.019 209.625 L 393.641 237.02 C 393.641 237.02 387.205 237.743 387.205 239.103 C 387.205 243.543 385.932 250.443 377.774 250.804 C 369.6 251.166 369.704 238.466 369.704 238.466 L 348.503 238.655 L 348.468 238.639 Z M 349.019 189.284 L 373.318 189.559 L 380.304 204.531 L 376.673 205.701 L 352.272 205.872 L 348.468 206.149 L 324.067 205.959 L 320.435 204.789 L 327.423 189.817 L 349.019 189.267 L 349.019 189.284 Z" style="fill: rgb(29, 29, 27); fill-rule: evenodd; stroke-width: 0px;" transform="matrix(1, 0, 0, 1, 5.684341886080802e-14, 7.105427357601002e-15)"/>
</svg>